<svg xmlns="http://www.w3.org/2000/svg" width="980" height="400" viewBox="0 0 980 400" font-family="ui-sans-serif, -apple-system, Segoe UI, Roboto, Helvetica, Arial, sans-serif">
<rect width="980" height="400" rx="10" fill="#ffffff"/>
<text x="22.0" y="28.0" font-size="16" fill="#0f172a" text-anchor="start" font-weight="650" font-family="ui-sans-serif, -apple-system, Segoe UI, Roboto, Helvetica, Arial, sans-serif" opacity="1.0">The post-step on the split</text>
<text x="22.0" y="47.0" font-size="12.5" fill="#64748b" text-anchor="start" font-weight="400" font-family="ui-sans-serif, -apple-system, Segoe UI, Roboto, Helvetica, Arial, sans-serif" opacity="1.0">The direction is the same in all four — what changes is where the boundary sits, and how much overlap it gets.</text>
<text x="22.0" y="62.0" font-size="12.5" fill="#0f172a" text-anchor="start" font-weight="650" font-family="ui-monospace, SFMono-Regular, Menlo, Consolas, monospace" opacity="1.0">--split-mode  —  pick exactly one</text>
<line x1="22.0" y1="72.0" x2="689.0" y2="72.0" stroke="#cbd5e1" stroke-width="1.2" opacity="1.0" stroke-linecap="round"/>
<text x="715.0" y="62.0" font-size="12.5" fill="#7c3aed" text-anchor="start" font-weight="650" font-family="ui-monospace, SFMono-Regular, Menlo, Consolas, monospace" opacity="1.0">--spill  —  safety net on top</text>
<line x1="715.0" y1="72.0" x2="920.0" y2="72.0" stroke="#7c3aed" stroke-width="1.2" opacity="0.5" stroke-linecap="round"/>
<line x1="702.0" y1="56.0" x2="702.0" y2="341.0" stroke="#cbd5e1" stroke-width="1.2" stroke-dasharray="4 4" opacity="1.0" stroke-linecap="round"/>
<rect x="22.0" y="92.0" width="205.0" height="205.0" rx="8" fill="#fbfcfe" stroke="#cbd5e1" stroke-width="1.2" opacity="1.0"/>
<clipPath id="c0"><rect x="22" y="92" width="205" height="205" rx="8"/></clipPath>
<g clip-path="url(#c0)">
<circle cx="75.2" cy="154.1" r="3.1" fill="#2563eb" opacity="0.92"/>
<circle cx="84.7" cy="164.0" r="3.1" fill="#2563eb" opacity="0.92"/>
<circle cx="95.9" cy="223.4" r="5.8" fill="none" stroke="#d97706" stroke-width="1.6"/>
<circle cx="95.9" cy="223.4" r="3.1" fill="#2563eb" opacity="0.92"/>
<circle cx="67.3" cy="226.9" r="3.1" fill="#2563eb" opacity="0.92"/>
<circle cx="73.9" cy="155.6" r="3.1" fill="#2563eb" opacity="0.92"/>
<circle cx="75.0" cy="171.1" r="3.1" fill="#2563eb" opacity="0.92"/>
<circle cx="51.0" cy="181.8" r="3.1" fill="#2563eb" opacity="0.92"/>
<circle cx="63.8" cy="131.7" r="3.1" fill="#2563eb" opacity="0.92"/>
<circle cx="86.6" cy="157.1" r="3.1" fill="#2563eb" opacity="0.92"/>
<circle cx="74.6" cy="167.5" r="3.1" fill="#2563eb" opacity="0.92"/>
<circle cx="83.7" cy="196.9" r="3.1" fill="#2563eb" opacity="0.92"/>
<circle cx="69.0" cy="189.8" r="3.1" fill="#2563eb" opacity="0.92"/>
<circle cx="67.6" cy="204.6" r="3.1" fill="#2563eb" opacity="0.92"/>
<circle cx="71.7" cy="208.7" r="3.1" fill="#2563eb" opacity="0.92"/>
<circle cx="85.0" cy="235.4" r="3.1" fill="#2563eb" opacity="0.92"/>
<circle cx="85.8" cy="205.5" r="3.1" fill="#2563eb" opacity="0.92"/>
<circle cx="68.4" cy="227.8" r="3.1" fill="#2563eb" opacity="0.92"/>
<circle cx="73.5" cy="193.9" r="3.1" fill="#2563eb" opacity="0.92"/>
<circle cx="77.7" cy="202.7" r="3.1" fill="#2563eb" opacity="0.92"/>
<circle cx="76.5" cy="130.3" r="3.1" fill="#2563eb" opacity="0.92"/>
<circle cx="80.5" cy="203.9" r="3.1" fill="#2563eb" opacity="0.92"/>
<circle cx="87.4" cy="190.3" r="3.1" fill="#2563eb" opacity="0.92"/>
<circle cx="82.8" cy="167.5" r="3.1" fill="#2563eb" opacity="0.92"/>
<circle cx="70.3" cy="245.7" r="3.1" fill="#2563eb" opacity="0.92"/>
<circle cx="70.9" cy="169.3" r="3.1" fill="#2563eb" opacity="0.92"/>
<circle cx="70.5" cy="172.8" r="3.1" fill="#2563eb" opacity="0.92"/>
<circle cx="87.7" cy="203.0" r="3.1" fill="#2563eb" opacity="0.92"/>
<circle cx="91.0" cy="136.4" r="3.1" fill="#2563eb" opacity="0.92"/>
<circle cx="89.0" cy="150.5" r="3.1" fill="#2563eb" opacity="0.92"/>
<circle cx="89.2" cy="117.0" r="3.1" fill="#2563eb" opacity="0.92"/>
<circle cx="77.7" cy="186.2" r="3.1" fill="#2563eb" opacity="0.92"/>
<circle cx="83.0" cy="214.2" r="3.1" fill="#2563eb" opacity="0.92"/>
<circle cx="55.6" cy="213.4" r="3.1" fill="#2563eb" opacity="0.92"/>
<circle cx="80.0" cy="171.8" r="3.1" fill="#2563eb" opacity="0.92"/>
<circle cx="55.8" cy="244.2" r="3.1" fill="#2563eb" opacity="0.92"/>
<circle cx="71.3" cy="192.1" r="3.1" fill="#2563eb" opacity="0.92"/>
<circle cx="74.7" cy="165.7" r="3.1" fill="#2563eb" opacity="0.92"/>
<circle cx="90.9" cy="179.2" r="3.1" fill="#2563eb" opacity="0.92"/>
<circle cx="83.1" cy="220.0" r="3.1" fill="#2563eb" opacity="0.92"/>
<circle cx="60.3" cy="179.0" r="3.1" fill="#2563eb" opacity="0.92"/>
<circle cx="83.7" cy="164.0" r="3.1" fill="#2563eb" opacity="0.92"/>
<circle cx="82.8" cy="162.2" r="3.1" fill="#2563eb" opacity="0.92"/>
<circle cx="85.6" cy="240.2" r="3.1" fill="#2563eb" opacity="0.92"/>
<circle cx="66.0" cy="172.3" r="3.1" fill="#2563eb" opacity="0.92"/>
<circle cx="82.9" cy="232.8" r="3.1" fill="#2563eb" opacity="0.92"/>
<circle cx="90.2" cy="199.8" r="3.1" fill="#2563eb" opacity="0.92"/>
<circle cx="72.3" cy="177.9" r="3.1" fill="#2563eb" opacity="0.92"/>
<circle cx="84.8" cy="230.4" r="3.1" fill="#2563eb" opacity="0.92"/>
<circle cx="194.1" cy="198.0" r="3.1" fill="#e11d48" opacity="0.92"/>
<circle cx="168.8" cy="210.0" r="3.1" fill="#e11d48" opacity="0.92"/>
<circle cx="148.5" cy="222.6" r="5.8" fill="none" stroke="#d97706" stroke-width="1.6"/>
<circle cx="148.5" cy="222.6" r="3.1" fill="#2563eb" opacity="0.92"/>
<circle cx="182.5" cy="224.6" r="3.1" fill="#e11d48" opacity="0.92"/>
<circle cx="175.1" cy="205.6" r="3.1" fill="#e11d48" opacity="0.92"/>
<circle cx="180.5" cy="166.1" r="3.1" fill="#e11d48" opacity="0.92"/>
<circle cx="179.5" cy="209.4" r="3.1" fill="#e11d48" opacity="0.92"/>
<circle cx="187.6" cy="130.4" r="3.1" fill="#e11d48" opacity="0.92"/>
<circle cx="174.9" cy="183.3" r="3.1" fill="#e11d48" opacity="0.92"/>
<circle cx="157.2" cy="155.1" r="3.1" fill="#e11d48" opacity="0.92"/>
<circle cx="189.3" cy="155.6" r="3.1" fill="#e11d48" opacity="0.92"/>
<circle cx="179.0" cy="235.9" r="3.1" fill="#e11d48" opacity="0.92"/>
<circle cx="192.6" cy="175.2" r="3.1" fill="#e11d48" opacity="0.92"/>
<circle cx="167.4" cy="250.5" r="3.1" fill="#e11d48" opacity="0.92"/>
<circle cx="186.3" cy="206.4" r="3.1" fill="#e11d48" opacity="0.92"/>
<circle cx="216.8" cy="221.4" r="3.1" fill="#e11d48" opacity="0.92"/>
<circle cx="172.3" cy="204.4" r="3.1" fill="#e11d48" opacity="0.92"/>
<circle cx="156.0" cy="230.7" r="3.1" fill="#e11d48" opacity="0.92"/>
<circle cx="203.4" cy="205.1" r="3.1" fill="#e11d48" opacity="0.92"/>
<circle cx="171.1" cy="243.7" r="3.1" fill="#e11d48" opacity="0.92"/>
<circle cx="188.2" cy="178.4" r="3.1" fill="#e11d48" opacity="0.92"/>
<circle cx="183.5" cy="213.8" r="3.1" fill="#e11d48" opacity="0.92"/>
<circle cx="184.2" cy="187.7" r="3.1" fill="#e11d48" opacity="0.92"/>
<circle cx="170.1" cy="179.6" r="3.1" fill="#e11d48" opacity="0.92"/>
<circle cx="149.5" cy="244.3" r="3.1" fill="#e11d48" opacity="0.92"/>
<circle cx="175.5" cy="204.3" r="3.1" fill="#e11d48" opacity="0.92"/>
<circle cx="163.1" cy="189.5" r="3.1" fill="#e11d48" opacity="0.92"/>
<circle cx="195.0" cy="185.4" r="3.1" fill="#e11d48" opacity="0.92"/>
<circle cx="183.1" cy="172.6" r="3.1" fill="#e11d48" opacity="0.92"/>
<circle cx="185.7" cy="239.3" r="3.1" fill="#e11d48" opacity="0.92"/>
<circle cx="176.9" cy="157.0" r="3.1" fill="#e11d48" opacity="0.92"/>
<circle cx="163.5" cy="198.5" r="3.1" fill="#e11d48" opacity="0.92"/>
<circle cx="174.3" cy="231.0" r="3.1" fill="#e11d48" opacity="0.92"/>
<circle cx="165.3" cy="197.2" r="3.1" fill="#e11d48" opacity="0.92"/>
<circle cx="117.1" cy="168.5" r="3.1" fill="#2563eb" opacity="0.92"/>
<circle cx="124.5" cy="162.8" r="3.1" fill="#e11d48" opacity="0.92"/>
<circle cx="133.5" cy="233.4" r="3.1" fill="#e11d48" opacity="0.92"/>
<circle cx="117.1" cy="222.0" r="3.1" fill="#2563eb" opacity="0.92"/>
</g>
<text x="22.0" y="317.0" font-size="13" fill="#0f172a" text-anchor="start" font-weight="650" font-family="ui-monospace, SFMono-Regular, Menlo, Consolas, monospace" opacity="1.0">none</text>
<text x="22.0" y="335.0" font-size="11.5" fill="#64748b" text-anchor="start" font-weight="400" font-family="ui-sans-serif, -apple-system, Segoe UI, Roboto, Helvetica, Arial, sans-serif" opacity="1.0">raw split — strays stay lost</text>
<rect x="253.0" y="92.0" width="205.0" height="205.0" rx="8" fill="#fbfcfe" stroke="#cbd5e1" stroke-width="1.2" opacity="1.0"/>
<clipPath id="c1"><rect x="253" y="92" width="205" height="205" rx="8"/></clipPath>
<g clip-path="url(#c1)">
<line x1="310.7" y1="187.9" x2="306.2" y2="154.1" stroke="#2563eb" stroke-width="0.6" stroke-dasharray="1 2" opacity="0.35" stroke-linecap="round"/>
<line x1="310.7" y1="187.9" x2="315.7" y2="164.0" stroke="#2563eb" stroke-width="0.6" stroke-dasharray="1 2" opacity="0.35" stroke-linecap="round"/>
<line x1="310.7" y1="187.9" x2="326.9" y2="223.4" stroke="#2563eb" stroke-width="0.6" stroke-dasharray="1 2" opacity="0.35" stroke-linecap="round"/>
<line x1="310.7" y1="187.9" x2="298.3" y2="226.9" stroke="#2563eb" stroke-width="0.6" stroke-dasharray="1 2" opacity="0.35" stroke-linecap="round"/>
<line x1="310.7" y1="187.9" x2="304.9" y2="155.6" stroke="#2563eb" stroke-width="0.6" stroke-dasharray="1 2" opacity="0.35" stroke-linecap="round"/>
<line x1="310.7" y1="187.9" x2="306.0" y2="171.1" stroke="#2563eb" stroke-width="0.6" stroke-dasharray="1 2" opacity="0.35" stroke-linecap="round"/>
<line x1="310.7" y1="187.9" x2="282.0" y2="181.8" stroke="#2563eb" stroke-width="0.6" stroke-dasharray="1 2" opacity="0.35" stroke-linecap="round"/>
<line x1="310.7" y1="187.9" x2="294.8" y2="131.7" stroke="#2563eb" stroke-width="0.6" stroke-dasharray="1 2" opacity="0.35" stroke-linecap="round"/>
<line x1="310.7" y1="187.9" x2="317.6" y2="157.1" stroke="#2563eb" stroke-width="0.6" stroke-dasharray="1 2" opacity="0.35" stroke-linecap="round"/>
<line x1="310.7" y1="187.9" x2="305.6" y2="167.5" stroke="#2563eb" stroke-width="0.6" stroke-dasharray="1 2" opacity="0.35" stroke-linecap="round"/>
<line x1="310.7" y1="187.9" x2="314.7" y2="196.9" stroke="#2563eb" stroke-width="0.6" stroke-dasharray="1 2" opacity="0.35" stroke-linecap="round"/>
<line x1="310.7" y1="187.9" x2="300.0" y2="189.8" stroke="#2563eb" stroke-width="0.6" stroke-dasharray="1 2" opacity="0.35" stroke-linecap="round"/>
<line x1="310.7" y1="187.9" x2="298.6" y2="204.6" stroke="#2563eb" stroke-width="0.6" stroke-dasharray="1 2" opacity="0.35" stroke-linecap="round"/>
<line x1="310.7" y1="187.9" x2="302.7" y2="208.7" stroke="#2563eb" stroke-width="0.6" stroke-dasharray="1 2" opacity="0.35" stroke-linecap="round"/>
<line x1="310.7" y1="187.9" x2="316.0" y2="235.4" stroke="#2563eb" stroke-width="0.6" stroke-dasharray="1 2" opacity="0.35" stroke-linecap="round"/>
<line x1="310.7" y1="187.9" x2="316.8" y2="205.5" stroke="#2563eb" stroke-width="0.6" stroke-dasharray="1 2" opacity="0.35" stroke-linecap="round"/>
<line x1="310.7" y1="187.9" x2="299.4" y2="227.8" stroke="#2563eb" stroke-width="0.6" stroke-dasharray="1 2" opacity="0.35" stroke-linecap="round"/>
<line x1="310.7" y1="187.9" x2="304.5" y2="193.9" stroke="#2563eb" stroke-width="0.6" stroke-dasharray="1 2" opacity="0.35" stroke-linecap="round"/>
<line x1="310.7" y1="187.9" x2="308.7" y2="202.7" stroke="#2563eb" stroke-width="0.6" stroke-dasharray="1 2" opacity="0.35" stroke-linecap="round"/>
<line x1="310.7" y1="187.9" x2="307.5" y2="130.3" stroke="#2563eb" stroke-width="0.6" stroke-dasharray="1 2" opacity="0.35" stroke-linecap="round"/>
<line x1="310.7" y1="187.9" x2="311.5" y2="203.9" stroke="#2563eb" stroke-width="0.6" stroke-dasharray="1 2" opacity="0.35" stroke-linecap="round"/>
<line x1="310.7" y1="187.9" x2="318.4" y2="190.3" stroke="#2563eb" stroke-width="0.6" stroke-dasharray="1 2" opacity="0.35" stroke-linecap="round"/>
<line x1="310.7" y1="187.9" x2="313.8" y2="167.5" stroke="#2563eb" stroke-width="0.6" stroke-dasharray="1 2" opacity="0.35" stroke-linecap="round"/>
<line x1="310.7" y1="187.9" x2="301.3" y2="245.7" stroke="#2563eb" stroke-width="0.6" stroke-dasharray="1 2" opacity="0.35" stroke-linecap="round"/>
<line x1="310.7" y1="187.9" x2="301.9" y2="169.3" stroke="#2563eb" stroke-width="0.6" stroke-dasharray="1 2" opacity="0.35" stroke-linecap="round"/>
<line x1="310.7" y1="187.9" x2="301.5" y2="172.8" stroke="#2563eb" stroke-width="0.6" stroke-dasharray="1 2" opacity="0.35" stroke-linecap="round"/>
<line x1="310.7" y1="187.9" x2="318.7" y2="203.0" stroke="#2563eb" stroke-width="0.6" stroke-dasharray="1 2" opacity="0.35" stroke-linecap="round"/>
<line x1="310.7" y1="187.9" x2="322.0" y2="136.4" stroke="#2563eb" stroke-width="0.6" stroke-dasharray="1 2" opacity="0.35" stroke-linecap="round"/>
<line x1="310.7" y1="187.9" x2="320.0" y2="150.5" stroke="#2563eb" stroke-width="0.6" stroke-dasharray="1 2" opacity="0.35" stroke-linecap="round"/>
<line x1="310.7" y1="187.9" x2="320.2" y2="117.0" stroke="#2563eb" stroke-width="0.6" stroke-dasharray="1 2" opacity="0.35" stroke-linecap="round"/>
<line x1="310.7" y1="187.9" x2="308.7" y2="186.2" stroke="#2563eb" stroke-width="0.6" stroke-dasharray="1 2" opacity="0.35" stroke-linecap="round"/>
<line x1="310.7" y1="187.9" x2="314.0" y2="214.2" stroke="#2563eb" stroke-width="0.6" stroke-dasharray="1 2" opacity="0.35" stroke-linecap="round"/>
<line x1="310.7" y1="187.9" x2="286.6" y2="213.4" stroke="#2563eb" stroke-width="0.6" stroke-dasharray="1 2" opacity="0.35" stroke-linecap="round"/>
<line x1="310.7" y1="187.9" x2="311.0" y2="171.8" stroke="#2563eb" stroke-width="0.6" stroke-dasharray="1 2" opacity="0.35" stroke-linecap="round"/>
<line x1="310.7" y1="187.9" x2="286.8" y2="244.2" stroke="#2563eb" stroke-width="0.6" stroke-dasharray="1 2" opacity="0.35" stroke-linecap="round"/>
<line x1="310.7" y1="187.9" x2="302.3" y2="192.1" stroke="#2563eb" stroke-width="0.6" stroke-dasharray="1 2" opacity="0.35" stroke-linecap="round"/>
<line x1="310.7" y1="187.9" x2="305.7" y2="165.7" stroke="#2563eb" stroke-width="0.6" stroke-dasharray="1 2" opacity="0.35" stroke-linecap="round"/>
<line x1="310.7" y1="187.9" x2="321.9" y2="179.2" stroke="#2563eb" stroke-width="0.6" stroke-dasharray="1 2" opacity="0.35" stroke-linecap="round"/>
<line x1="310.7" y1="187.9" x2="314.1" y2="220.0" stroke="#2563eb" stroke-width="0.6" stroke-dasharray="1 2" opacity="0.35" stroke-linecap="round"/>
<line x1="310.7" y1="187.9" x2="291.3" y2="179.0" stroke="#2563eb" stroke-width="0.6" stroke-dasharray="1 2" opacity="0.35" stroke-linecap="round"/>
<line x1="310.7" y1="187.9" x2="314.7" y2="164.0" stroke="#2563eb" stroke-width="0.6" stroke-dasharray="1 2" opacity="0.35" stroke-linecap="round"/>
<line x1="310.7" y1="187.9" x2="313.8" y2="162.2" stroke="#2563eb" stroke-width="0.6" stroke-dasharray="1 2" opacity="0.35" stroke-linecap="round"/>
<line x1="310.7" y1="187.9" x2="316.6" y2="240.2" stroke="#2563eb" stroke-width="0.6" stroke-dasharray="1 2" opacity="0.35" stroke-linecap="round"/>
<line x1="310.7" y1="187.9" x2="297.0" y2="172.3" stroke="#2563eb" stroke-width="0.6" stroke-dasharray="1 2" opacity="0.35" stroke-linecap="round"/>
<line x1="310.7" y1="187.9" x2="313.9" y2="232.8" stroke="#2563eb" stroke-width="0.6" stroke-dasharray="1 2" opacity="0.35" stroke-linecap="round"/>
<line x1="310.7" y1="187.9" x2="321.2" y2="199.8" stroke="#2563eb" stroke-width="0.6" stroke-dasharray="1 2" opacity="0.35" stroke-linecap="round"/>
<line x1="310.7" y1="187.9" x2="303.3" y2="177.9" stroke="#2563eb" stroke-width="0.6" stroke-dasharray="1 2" opacity="0.35" stroke-linecap="round"/>
<line x1="310.7" y1="187.9" x2="315.8" y2="230.4" stroke="#2563eb" stroke-width="0.6" stroke-dasharray="1 2" opacity="0.35" stroke-linecap="round"/>
<line x1="310.7" y1="187.9" x2="348.1" y2="168.5" stroke="#2563eb" stroke-width="0.6" stroke-dasharray="1 2" opacity="0.35" stroke-linecap="round"/>
<line x1="310.7" y1="187.9" x2="355.5" y2="162.8" stroke="#2563eb" stroke-width="0.6" stroke-dasharray="1 2" opacity="0.35" stroke-linecap="round"/>
<line x1="310.7" y1="187.9" x2="348.1" y2="222.0" stroke="#2563eb" stroke-width="0.6" stroke-dasharray="1 2" opacity="0.35" stroke-linecap="round"/>
<circle cx="310.7" cy="187.9" r="71.6" fill="none" stroke="#2563eb" stroke-width="1.1" stroke-dasharray="4 3" opacity="0.55"/>
<circle cx="310.7" cy="187.9" r="5.2" fill="#ffffff" stroke="#2563eb" stroke-width="2.2"/>
<line x1="407.4" y1="201.3" x2="425.1" y2="198.0" stroke="#e11d48" stroke-width="0.6" stroke-dasharray="1 2" opacity="0.35" stroke-linecap="round"/>
<line x1="407.4" y1="201.3" x2="399.8" y2="210.0" stroke="#e11d48" stroke-width="0.6" stroke-dasharray="1 2" opacity="0.35" stroke-linecap="round"/>
<line x1="407.4" y1="201.3" x2="379.5" y2="222.6" stroke="#e11d48" stroke-width="0.6" stroke-dasharray="1 2" opacity="0.35" stroke-linecap="round"/>
<line x1="407.4" y1="201.3" x2="413.5" y2="224.6" stroke="#e11d48" stroke-width="0.6" stroke-dasharray="1 2" opacity="0.35" stroke-linecap="round"/>
<line x1="407.4" y1="201.3" x2="406.1" y2="205.6" stroke="#e11d48" stroke-width="0.6" stroke-dasharray="1 2" opacity="0.35" stroke-linecap="round"/>
<line x1="407.4" y1="201.3" x2="411.5" y2="166.1" stroke="#e11d48" stroke-width="0.6" stroke-dasharray="1 2" opacity="0.35" stroke-linecap="round"/>
<line x1="407.4" y1="201.3" x2="410.5" y2="209.4" stroke="#e11d48" stroke-width="0.6" stroke-dasharray="1 2" opacity="0.35" stroke-linecap="round"/>
<line x1="407.4" y1="201.3" x2="418.6" y2="130.4" stroke="#e11d48" stroke-width="0.6" stroke-dasharray="1 2" opacity="0.35" stroke-linecap="round"/>
<line x1="407.4" y1="201.3" x2="405.9" y2="183.3" stroke="#e11d48" stroke-width="0.6" stroke-dasharray="1 2" opacity="0.35" stroke-linecap="round"/>
<line x1="407.4" y1="201.3" x2="388.2" y2="155.1" stroke="#e11d48" stroke-width="0.6" stroke-dasharray="1 2" opacity="0.35" stroke-linecap="round"/>
<line x1="407.4" y1="201.3" x2="420.3" y2="155.6" stroke="#e11d48" stroke-width="0.6" stroke-dasharray="1 2" opacity="0.35" stroke-linecap="round"/>
<line x1="407.4" y1="201.3" x2="410.0" y2="235.9" stroke="#e11d48" stroke-width="0.6" stroke-dasharray="1 2" opacity="0.35" stroke-linecap="round"/>
<line x1="407.4" y1="201.3" x2="423.6" y2="175.2" stroke="#e11d48" stroke-width="0.6" stroke-dasharray="1 2" opacity="0.35" stroke-linecap="round"/>
<line x1="407.4" y1="201.3" x2="398.4" y2="250.5" stroke="#e11d48" stroke-width="0.6" stroke-dasharray="1 2" opacity="0.35" stroke-linecap="round"/>
<line x1="407.4" y1="201.3" x2="417.3" y2="206.4" stroke="#e11d48" stroke-width="0.6" stroke-dasharray="1 2" opacity="0.35" stroke-linecap="round"/>
<line x1="407.4" y1="201.3" x2="447.8" y2="221.4" stroke="#e11d48" stroke-width="0.6" stroke-dasharray="1 2" opacity="0.35" stroke-linecap="round"/>
<line x1="407.4" y1="201.3" x2="403.3" y2="204.4" stroke="#e11d48" stroke-width="0.6" stroke-dasharray="1 2" opacity="0.35" stroke-linecap="round"/>
<line x1="407.4" y1="201.3" x2="387.0" y2="230.7" stroke="#e11d48" stroke-width="0.6" stroke-dasharray="1 2" opacity="0.35" stroke-linecap="round"/>
<line x1="407.4" y1="201.3" x2="434.4" y2="205.1" stroke="#e11d48" stroke-width="0.6" stroke-dasharray="1 2" opacity="0.35" stroke-linecap="round"/>
<line x1="407.4" y1="201.3" x2="402.1" y2="243.7" stroke="#e11d48" stroke-width="0.6" stroke-dasharray="1 2" opacity="0.35" stroke-linecap="round"/>
<line x1="407.4" y1="201.3" x2="419.2" y2="178.4" stroke="#e11d48" stroke-width="0.6" stroke-dasharray="1 2" opacity="0.35" stroke-linecap="round"/>
<line x1="407.4" y1="201.3" x2="414.5" y2="213.8" stroke="#e11d48" stroke-width="0.6" stroke-dasharray="1 2" opacity="0.35" stroke-linecap="round"/>
<line x1="407.4" y1="201.3" x2="415.2" y2="187.7" stroke="#e11d48" stroke-width="0.6" stroke-dasharray="1 2" opacity="0.35" stroke-linecap="round"/>
<line x1="407.4" y1="201.3" x2="401.1" y2="179.6" stroke="#e11d48" stroke-width="0.6" stroke-dasharray="1 2" opacity="0.35" stroke-linecap="round"/>
<line x1="407.4" y1="201.3" x2="380.5" y2="244.3" stroke="#e11d48" stroke-width="0.6" stroke-dasharray="1 2" opacity="0.35" stroke-linecap="round"/>
<line x1="407.4" y1="201.3" x2="406.5" y2="204.3" stroke="#e11d48" stroke-width="0.6" stroke-dasharray="1 2" opacity="0.35" stroke-linecap="round"/>
<line x1="407.4" y1="201.3" x2="394.1" y2="189.5" stroke="#e11d48" stroke-width="0.6" stroke-dasharray="1 2" opacity="0.35" stroke-linecap="round"/>
<line x1="407.4" y1="201.3" x2="426.0" y2="185.4" stroke="#e11d48" stroke-width="0.6" stroke-dasharray="1 2" opacity="0.35" stroke-linecap="round"/>
<line x1="407.4" y1="201.3" x2="414.1" y2="172.6" stroke="#e11d48" stroke-width="0.6" stroke-dasharray="1 2" opacity="0.35" stroke-linecap="round"/>
<line x1="407.4" y1="201.3" x2="416.7" y2="239.3" stroke="#e11d48" stroke-width="0.6" stroke-dasharray="1 2" opacity="0.35" stroke-linecap="round"/>
<line x1="407.4" y1="201.3" x2="407.9" y2="157.0" stroke="#e11d48" stroke-width="0.6" stroke-dasharray="1 2" opacity="0.35" stroke-linecap="round"/>
<line x1="407.4" y1="201.3" x2="394.5" y2="198.5" stroke="#e11d48" stroke-width="0.6" stroke-dasharray="1 2" opacity="0.35" stroke-linecap="round"/>
<line x1="407.4" y1="201.3" x2="405.3" y2="231.0" stroke="#e11d48" stroke-width="0.6" stroke-dasharray="1 2" opacity="0.35" stroke-linecap="round"/>
<line x1="407.4" y1="201.3" x2="396.3" y2="197.2" stroke="#e11d48" stroke-width="0.6" stroke-dasharray="1 2" opacity="0.35" stroke-linecap="round"/>
<line x1="407.4" y1="201.3" x2="364.5" y2="233.4" stroke="#e11d48" stroke-width="0.6" stroke-dasharray="1 2" opacity="0.35" stroke-linecap="round"/>
<circle cx="407.4" cy="201.3" r="71.8" fill="none" stroke="#e11d48" stroke-width="1.1" stroke-dasharray="4 3" opacity="0.55"/>
<circle cx="407.4" cy="201.3" r="5.2" fill="#ffffff" stroke="#e11d48" stroke-width="2.2"/>
<line x1="347.5" y1="298.6" x2="370.4" y2="90.4" stroke="#0f172a" stroke-width="1.8" opacity="1.0" stroke-linecap="round"/>
<circle cx="306.2" cy="154.1" r="3.1" fill="#2563eb" opacity="0.92"/>
<circle cx="315.7" cy="164.0" r="3.1" fill="#2563eb" opacity="0.92"/>
<circle cx="326.9" cy="223.4" r="3.1" fill="#2563eb" opacity="0.92"/>
<circle cx="298.3" cy="226.9" r="3.1" fill="#2563eb" opacity="0.92"/>
<circle cx="304.9" cy="155.6" r="3.1" fill="#2563eb" opacity="0.92"/>
<circle cx="306.0" cy="171.1" r="3.1" fill="#2563eb" opacity="0.92"/>
<circle cx="282.0" cy="181.8" r="3.1" fill="#2563eb" opacity="0.92"/>
<circle cx="294.8" cy="131.7" r="3.1" fill="#2563eb" opacity="0.92"/>
<circle cx="317.6" cy="157.1" r="3.1" fill="#2563eb" opacity="0.92"/>
<circle cx="305.6" cy="167.5" r="3.1" fill="#2563eb" opacity="0.92"/>
<circle cx="314.7" cy="196.9" r="3.1" fill="#2563eb" opacity="0.92"/>
<circle cx="300.0" cy="189.8" r="3.1" fill="#2563eb" opacity="0.92"/>
<circle cx="298.6" cy="204.6" r="3.1" fill="#2563eb" opacity="0.92"/>
<circle cx="302.7" cy="208.7" r="3.1" fill="#2563eb" opacity="0.92"/>
<circle cx="316.0" cy="235.4" r="3.1" fill="#2563eb" opacity="0.92"/>
<circle cx="316.8" cy="205.5" r="3.1" fill="#2563eb" opacity="0.92"/>
<circle cx="299.4" cy="227.8" r="3.1" fill="#2563eb" opacity="0.92"/>
<circle cx="304.5" cy="193.9" r="3.1" fill="#2563eb" opacity="0.92"/>
<circle cx="308.7" cy="202.7" r="3.1" fill="#2563eb" opacity="0.92"/>
<circle cx="307.5" cy="130.3" r="3.1" fill="#2563eb" opacity="0.92"/>
<circle cx="311.5" cy="203.9" r="3.1" fill="#2563eb" opacity="0.92"/>
<circle cx="318.4" cy="190.3" r="3.1" fill="#2563eb" opacity="0.92"/>
<circle cx="313.8" cy="167.5" r="3.1" fill="#2563eb" opacity="0.92"/>
<circle cx="301.3" cy="245.7" r="3.1" fill="#2563eb" opacity="0.92"/>
<circle cx="301.9" cy="169.3" r="3.1" fill="#2563eb" opacity="0.92"/>
<circle cx="301.5" cy="172.8" r="3.1" fill="#2563eb" opacity="0.92"/>
<circle cx="318.7" cy="203.0" r="3.1" fill="#2563eb" opacity="0.92"/>
<circle cx="322.0" cy="136.4" r="3.1" fill="#2563eb" opacity="0.92"/>
<circle cx="320.0" cy="150.5" r="3.1" fill="#2563eb" opacity="0.92"/>
<circle cx="320.2" cy="117.0" r="3.1" fill="#2563eb" opacity="0.92"/>
<circle cx="308.7" cy="186.2" r="3.1" fill="#2563eb" opacity="0.92"/>
<circle cx="314.0" cy="214.2" r="3.1" fill="#2563eb" opacity="0.92"/>
<circle cx="286.6" cy="213.4" r="3.1" fill="#2563eb" opacity="0.92"/>
<circle cx="311.0" cy="171.8" r="3.1" fill="#2563eb" opacity="0.92"/>
<circle cx="286.8" cy="244.2" r="3.1" fill="#2563eb" opacity="0.92"/>
<circle cx="302.3" cy="192.1" r="3.1" fill="#2563eb" opacity="0.92"/>
<circle cx="305.7" cy="165.7" r="3.1" fill="#2563eb" opacity="0.92"/>
<circle cx="321.9" cy="179.2" r="3.1" fill="#2563eb" opacity="0.92"/>
<circle cx="314.1" cy="220.0" r="3.1" fill="#2563eb" opacity="0.92"/>
<circle cx="291.3" cy="179.0" r="3.1" fill="#2563eb" opacity="0.92"/>
<circle cx="314.7" cy="164.0" r="3.1" fill="#2563eb" opacity="0.92"/>
<circle cx="313.8" cy="162.2" r="3.1" fill="#2563eb" opacity="0.92"/>
<circle cx="316.6" cy="240.2" r="3.1" fill="#2563eb" opacity="0.92"/>
<circle cx="297.0" cy="172.3" r="3.1" fill="#2563eb" opacity="0.92"/>
<circle cx="313.9" cy="232.8" r="3.1" fill="#2563eb" opacity="0.92"/>
<circle cx="321.2" cy="199.8" r="3.1" fill="#2563eb" opacity="0.92"/>
<circle cx="303.3" cy="177.9" r="3.1" fill="#2563eb" opacity="0.92"/>
<circle cx="315.8" cy="230.4" r="3.1" fill="#2563eb" opacity="0.92"/>
<circle cx="425.1" cy="198.0" r="3.1" fill="#e11d48" opacity="0.92"/>
<circle cx="399.8" cy="210.0" r="3.1" fill="#e11d48" opacity="0.92"/>
<circle cx="379.5" cy="222.6" r="3.1" fill="#e11d48" opacity="0.92"/>
<circle cx="413.5" cy="224.6" r="3.1" fill="#e11d48" opacity="0.92"/>
<circle cx="406.1" cy="205.6" r="3.1" fill="#e11d48" opacity="0.92"/>
<circle cx="411.5" cy="166.1" r="3.1" fill="#e11d48" opacity="0.92"/>
<circle cx="410.5" cy="209.4" r="3.1" fill="#e11d48" opacity="0.92"/>
<circle cx="418.6" cy="130.4" r="3.1" fill="#e11d48" opacity="0.92"/>
<circle cx="405.9" cy="183.3" r="3.1" fill="#e11d48" opacity="0.92"/>
<circle cx="388.2" cy="155.1" r="3.1" fill="#e11d48" opacity="0.92"/>
<circle cx="420.3" cy="155.6" r="3.1" fill="#e11d48" opacity="0.92"/>
<circle cx="410.0" cy="235.9" r="3.1" fill="#e11d48" opacity="0.92"/>
<circle cx="423.6" cy="175.2" r="3.1" fill="#e11d48" opacity="0.92"/>
<circle cx="398.4" cy="250.5" r="3.1" fill="#e11d48" opacity="0.92"/>
<circle cx="417.3" cy="206.4" r="3.1" fill="#e11d48" opacity="0.92"/>
<circle cx="447.8" cy="221.4" r="3.1" fill="#e11d48" opacity="0.92"/>
<circle cx="403.3" cy="204.4" r="3.1" fill="#e11d48" opacity="0.92"/>
<circle cx="387.0" cy="230.7" r="3.1" fill="#e11d48" opacity="0.92"/>
<circle cx="434.4" cy="205.1" r="3.1" fill="#e11d48" opacity="0.92"/>
<circle cx="402.1" cy="243.7" r="3.1" fill="#e11d48" opacity="0.92"/>
<circle cx="419.2" cy="178.4" r="3.1" fill="#e11d48" opacity="0.92"/>
<circle cx="414.5" cy="213.8" r="3.1" fill="#e11d48" opacity="0.92"/>
<circle cx="415.2" cy="187.7" r="3.1" fill="#e11d48" opacity="0.92"/>
<circle cx="401.1" cy="179.6" r="3.1" fill="#e11d48" opacity="0.92"/>
<circle cx="380.5" cy="244.3" r="3.1" fill="#e11d48" opacity="0.92"/>
<circle cx="406.5" cy="204.3" r="3.1" fill="#e11d48" opacity="0.92"/>
<circle cx="394.1" cy="189.5" r="3.1" fill="#e11d48" opacity="0.92"/>
<circle cx="426.0" cy="185.4" r="3.1" fill="#e11d48" opacity="0.92"/>
<circle cx="414.1" cy="172.6" r="3.1" fill="#e11d48" opacity="0.92"/>
<circle cx="416.7" cy="239.3" r="3.1" fill="#e11d48" opacity="0.92"/>
<circle cx="407.9" cy="157.0" r="3.1" fill="#e11d48" opacity="0.92"/>
<circle cx="394.5" cy="198.5" r="3.1" fill="#e11d48" opacity="0.92"/>
<circle cx="405.3" cy="231.0" r="3.1" fill="#e11d48" opacity="0.92"/>
<circle cx="396.3" cy="197.2" r="3.1" fill="#e11d48" opacity="0.92"/>
<circle cx="348.1" cy="168.5" r="3.1" fill="#2563eb" opacity="0.92"/>
<circle cx="355.5" cy="162.8" r="3.1" fill="#2563eb" opacity="0.92"/>
<circle cx="364.5" cy="233.4" r="3.1" fill="#e11d48" opacity="0.92"/>
<circle cx="348.1" cy="222.0" r="3.1" fill="#2563eb" opacity="0.92"/>
</g>
<text x="253.0" y="317.0" font-size="13" fill="#0f172a" text-anchor="start" font-weight="650" font-family="ui-monospace, SFMono-Regular, Menlo, Consolas, monospace" opacity="1.0">centroid</text>
<text x="253.0" y="335.0" font-size="11.5" fill="#64748b" text-anchor="start" font-weight="400" font-family="ui-sans-serif, -apple-system, Segoe UI, Roboto, Helvetica, Arial, sans-serif" opacity="1.0">every point joins the nearer centroid</text>
<rect x="484.0" y="92.0" width="205.0" height="205.0" rx="8" fill="#fbfcfe" stroke="#cbd5e1" stroke-width="1.2" opacity="1.0"/>
<clipPath id="c2"><rect x="484" y="92" width="205" height="205" rx="8"/></clipPath>
<g clip-path="url(#c2)">
<line x1="580.0" y1="298.6" x2="602.9" y2="90.4" stroke="#059669" stroke-width="16.70842695691353" opacity="0.3" stroke-linecap="round"/>
<line x1="580.0" y1="298.6" x2="602.9" y2="90.4" stroke="#0f172a" stroke-width="1.8" opacity="1.0" stroke-linecap="round"/>
<circle cx="537.2" cy="154.1" r="3.1" fill="#2563eb" opacity="0.92"/>
<circle cx="546.7" cy="164.0" r="3.1" fill="#2563eb" opacity="0.92"/>
<circle cx="557.9" cy="223.4" r="3.1" fill="#2563eb" opacity="0.92"/>
<circle cx="529.3" cy="226.9" r="3.1" fill="#2563eb" opacity="0.92"/>
<circle cx="535.9" cy="155.6" r="3.1" fill="#2563eb" opacity="0.92"/>
<circle cx="537.0" cy="171.1" r="3.1" fill="#2563eb" opacity="0.92"/>
<circle cx="513.0" cy="181.8" r="3.1" fill="#2563eb" opacity="0.92"/>
<circle cx="525.8" cy="131.7" r="3.1" fill="#2563eb" opacity="0.92"/>
<circle cx="548.6" cy="157.1" r="3.1" fill="#2563eb" opacity="0.92"/>
<circle cx="536.6" cy="167.5" r="3.1" fill="#2563eb" opacity="0.92"/>
<circle cx="545.7" cy="196.9" r="3.1" fill="#2563eb" opacity="0.92"/>
<circle cx="531.0" cy="189.8" r="3.1" fill="#2563eb" opacity="0.92"/>
<circle cx="529.6" cy="204.6" r="3.1" fill="#2563eb" opacity="0.92"/>
<circle cx="533.7" cy="208.7" r="3.1" fill="#2563eb" opacity="0.92"/>
<circle cx="547.0" cy="235.4" r="3.1" fill="#2563eb" opacity="0.92"/>
<circle cx="547.8" cy="205.5" r="3.1" fill="#2563eb" opacity="0.92"/>
<circle cx="530.4" cy="227.8" r="3.1" fill="#2563eb" opacity="0.92"/>
<circle cx="535.5" cy="193.9" r="3.1" fill="#2563eb" opacity="0.92"/>
<circle cx="539.7" cy="202.7" r="3.1" fill="#2563eb" opacity="0.92"/>
<circle cx="538.5" cy="130.3" r="3.1" fill="#2563eb" opacity="0.92"/>
<circle cx="542.5" cy="203.9" r="3.1" fill="#2563eb" opacity="0.92"/>
<circle cx="549.4" cy="190.3" r="3.1" fill="#2563eb" opacity="0.92"/>
<circle cx="544.8" cy="167.5" r="3.1" fill="#2563eb" opacity="0.92"/>
<circle cx="532.3" cy="245.7" r="3.1" fill="#2563eb" opacity="0.92"/>
<circle cx="532.9" cy="169.3" r="3.1" fill="#2563eb" opacity="0.92"/>
<circle cx="532.5" cy="172.8" r="3.1" fill="#2563eb" opacity="0.92"/>
<circle cx="549.7" cy="203.0" r="3.1" fill="#2563eb" opacity="0.92"/>
<circle cx="553.0" cy="136.4" r="3.1" fill="#2563eb" opacity="0.92"/>
<circle cx="551.0" cy="150.5" r="3.1" fill="#2563eb" opacity="0.92"/>
<circle cx="551.2" cy="117.0" r="3.1" fill="#2563eb" opacity="0.92"/>
<circle cx="539.7" cy="186.2" r="3.1" fill="#2563eb" opacity="0.92"/>
<circle cx="545.0" cy="214.2" r="3.1" fill="#2563eb" opacity="0.92"/>
<circle cx="517.6" cy="213.4" r="3.1" fill="#2563eb" opacity="0.92"/>
<circle cx="542.0" cy="171.8" r="3.1" fill="#2563eb" opacity="0.92"/>
<circle cx="517.8" cy="244.2" r="3.1" fill="#2563eb" opacity="0.92"/>
<circle cx="533.3" cy="192.1" r="3.1" fill="#2563eb" opacity="0.92"/>
<circle cx="536.7" cy="165.7" r="3.1" fill="#2563eb" opacity="0.92"/>
<circle cx="552.9" cy="179.2" r="3.1" fill="#2563eb" opacity="0.92"/>
<circle cx="545.1" cy="220.0" r="3.1" fill="#2563eb" opacity="0.92"/>
<circle cx="522.3" cy="179.0" r="3.1" fill="#2563eb" opacity="0.92"/>
<circle cx="545.7" cy="164.0" r="3.1" fill="#2563eb" opacity="0.92"/>
<circle cx="544.8" cy="162.2" r="3.1" fill="#2563eb" opacity="0.92"/>
<circle cx="547.6" cy="240.2" r="3.1" fill="#2563eb" opacity="0.92"/>
<circle cx="528.0" cy="172.3" r="3.1" fill="#2563eb" opacity="0.92"/>
<circle cx="544.9" cy="232.8" r="3.1" fill="#2563eb" opacity="0.92"/>
<circle cx="552.2" cy="199.8" r="3.1" fill="#2563eb" opacity="0.92"/>
<circle cx="534.3" cy="177.9" r="3.1" fill="#2563eb" opacity="0.92"/>
<circle cx="546.8" cy="230.4" r="3.1" fill="#2563eb" opacity="0.92"/>
<circle cx="656.1" cy="198.0" r="3.1" fill="#e11d48" opacity="0.92"/>
<circle cx="630.8" cy="210.0" r="3.1" fill="#e11d48" opacity="0.92"/>
<circle cx="610.5" cy="222.6" r="3.1" fill="#e11d48" opacity="0.92"/>
<circle cx="644.5" cy="224.6" r="3.1" fill="#e11d48" opacity="0.92"/>
<circle cx="637.1" cy="205.6" r="3.1" fill="#e11d48" opacity="0.92"/>
<circle cx="642.5" cy="166.1" r="3.1" fill="#e11d48" opacity="0.92"/>
<circle cx="641.5" cy="209.4" r="3.1" fill="#e11d48" opacity="0.92"/>
<circle cx="649.6" cy="130.4" r="3.1" fill="#e11d48" opacity="0.92"/>
<circle cx="636.9" cy="183.3" r="3.1" fill="#e11d48" opacity="0.92"/>
<circle cx="619.2" cy="155.1" r="3.1" fill="#e11d48" opacity="0.92"/>
<circle cx="651.3" cy="155.6" r="3.1" fill="#e11d48" opacity="0.92"/>
<circle cx="641.0" cy="235.9" r="3.1" fill="#e11d48" opacity="0.92"/>
<circle cx="654.6" cy="175.2" r="3.1" fill="#e11d48" opacity="0.92"/>
<circle cx="629.4" cy="250.5" r="3.1" fill="#e11d48" opacity="0.92"/>
<circle cx="648.3" cy="206.4" r="3.1" fill="#e11d48" opacity="0.92"/>
<circle cx="678.8" cy="221.4" r="3.1" fill="#e11d48" opacity="0.92"/>
<circle cx="634.3" cy="204.4" r="3.1" fill="#e11d48" opacity="0.92"/>
<circle cx="618.0" cy="230.7" r="3.1" fill="#e11d48" opacity="0.92"/>
<circle cx="665.4" cy="205.1" r="3.1" fill="#e11d48" opacity="0.92"/>
<circle cx="633.1" cy="243.7" r="3.1" fill="#e11d48" opacity="0.92"/>
<circle cx="650.2" cy="178.4" r="3.1" fill="#e11d48" opacity="0.92"/>
<circle cx="645.5" cy="213.8" r="3.1" fill="#e11d48" opacity="0.92"/>
<circle cx="646.2" cy="187.7" r="3.1" fill="#e11d48" opacity="0.92"/>
<circle cx="632.1" cy="179.6" r="3.1" fill="#e11d48" opacity="0.92"/>
<circle cx="611.5" cy="244.3" r="3.1" fill="#e11d48" opacity="0.92"/>
<circle cx="637.5" cy="204.3" r="3.1" fill="#e11d48" opacity="0.92"/>
<circle cx="625.1" cy="189.5" r="3.1" fill="#e11d48" opacity="0.92"/>
<circle cx="657.0" cy="185.4" r="3.1" fill="#e11d48" opacity="0.92"/>
<circle cx="645.1" cy="172.6" r="3.1" fill="#e11d48" opacity="0.92"/>
<circle cx="647.7" cy="239.3" r="3.1" fill="#e11d48" opacity="0.92"/>
<circle cx="638.9" cy="157.0" r="3.1" fill="#e11d48" opacity="0.92"/>
<circle cx="625.5" cy="198.5" r="3.1" fill="#e11d48" opacity="0.92"/>
<circle cx="636.3" cy="231.0" r="3.1" fill="#e11d48" opacity="0.92"/>
<circle cx="627.3" cy="197.2" r="3.1" fill="#e11d48" opacity="0.92"/>
<circle cx="579.1" cy="168.5" r="3.1" fill="#2563eb" opacity="0.92"/>
<circle cx="586.5" cy="162.8" r="3.1" fill="#2563eb" opacity="0.92"/>
<circle cx="595.5" cy="233.4" r="3.1" fill="#e11d48" opacity="0.92"/>
<circle cx="579.1" cy="222.0" r="3.1" fill="#2563eb" opacity="0.92"/>
</g>
<text x="484.0" y="317.0" font-size="13" fill="#0f172a" text-anchor="start" font-weight="650" font-family="ui-monospace, SFMono-Regular, Menlo, Consolas, monospace" opacity="1.0">plane</text>
<text x="484.0" y="335.0" font-size="11.5" fill="#64748b" text-anchor="start" font-weight="400" font-family="ui-sans-serif, -apple-system, Segoe UI, Roboto, Helvetica, Arial, sans-serif" opacity="1.0">shifted into the widest gap</text>
<rect x="715.0" y="92.0" width="205.0" height="205.0" rx="8" fill="#fbfcfe" stroke="#cbd5e1" stroke-width="1.2" opacity="1.0"/>
<clipPath id="c3"><rect x="715" y="92" width="205" height="205" rx="8"/></clipPath>
<g clip-path="url(#c3)">
<line x1="811.0" y1="298.6" x2="833.9" y2="90.4" stroke="#7c3aed" stroke-width="41.0" opacity="0.18" stroke-linecap="round"/>
<line x1="811.0" y1="298.6" x2="833.9" y2="90.4" stroke="#0f172a" stroke-width="1.8" opacity="1.0" stroke-linecap="round"/>
<circle cx="768.2" cy="154.1" r="3.1" fill="#2563eb" opacity="0.92"/>
<circle cx="777.7" cy="164.0" r="3.1" fill="#2563eb" opacity="0.92"/>
<circle cx="788.9" cy="223.4" r="3.1" fill="#2563eb" opacity="0.92"/>
<circle cx="760.3" cy="226.9" r="3.1" fill="#2563eb" opacity="0.92"/>
<circle cx="766.9" cy="155.6" r="3.1" fill="#2563eb" opacity="0.92"/>
<circle cx="768.0" cy="171.1" r="3.1" fill="#2563eb" opacity="0.92"/>
<circle cx="744.0" cy="181.8" r="3.1" fill="#2563eb" opacity="0.92"/>
<circle cx="756.8" cy="131.7" r="3.1" fill="#2563eb" opacity="0.92"/>
<circle cx="779.6" cy="157.1" r="3.1" fill="#2563eb" opacity="0.92"/>
<circle cx="767.6" cy="167.5" r="3.1" fill="#2563eb" opacity="0.92"/>
<circle cx="776.7" cy="196.9" r="3.1" fill="#2563eb" opacity="0.92"/>
<circle cx="762.0" cy="189.8" r="3.1" fill="#2563eb" opacity="0.92"/>
<circle cx="760.6" cy="204.6" r="3.1" fill="#2563eb" opacity="0.92"/>
<circle cx="764.7" cy="208.7" r="3.1" fill="#2563eb" opacity="0.92"/>
<circle cx="778.0" cy="235.4" r="3.1" fill="#2563eb" opacity="0.92"/>
<circle cx="778.8" cy="205.5" r="3.1" fill="#2563eb" opacity="0.92"/>
<circle cx="761.4" cy="227.8" r="3.1" fill="#2563eb" opacity="0.92"/>
<circle cx="766.5" cy="193.9" r="3.1" fill="#2563eb" opacity="0.92"/>
<circle cx="770.7" cy="202.7" r="3.1" fill="#2563eb" opacity="0.92"/>
<circle cx="769.5" cy="130.3" r="3.1" fill="#2563eb" opacity="0.92"/>
<circle cx="773.5" cy="203.9" r="3.1" fill="#2563eb" opacity="0.92"/>
<circle cx="780.4" cy="190.3" r="3.1" fill="#2563eb" opacity="0.92"/>
<circle cx="775.8" cy="167.5" r="3.1" fill="#2563eb" opacity="0.92"/>
<circle cx="763.3" cy="245.7" r="3.1" fill="#2563eb" opacity="0.92"/>
<circle cx="763.9" cy="169.3" r="3.1" fill="#2563eb" opacity="0.92"/>
<circle cx="763.5" cy="172.8" r="3.1" fill="#2563eb" opacity="0.92"/>
<circle cx="780.7" cy="203.0" r="3.1" fill="#2563eb" opacity="0.92"/>
<circle cx="784.0" cy="136.4" r="3.1" fill="#2563eb" opacity="0.92"/>
<circle cx="782.0" cy="150.5" r="3.1" fill="#2563eb" opacity="0.92"/>
<circle cx="782.2" cy="117.0" r="3.1" fill="#2563eb" opacity="0.92"/>
<circle cx="770.7" cy="186.2" r="3.1" fill="#2563eb" opacity="0.92"/>
<circle cx="776.0" cy="214.2" r="3.1" fill="#2563eb" opacity="0.92"/>
<circle cx="748.6" cy="213.4" r="3.1" fill="#2563eb" opacity="0.92"/>
<circle cx="773.0" cy="171.8" r="3.1" fill="#2563eb" opacity="0.92"/>
<circle cx="748.8" cy="244.2" r="3.1" fill="#2563eb" opacity="0.92"/>
<circle cx="764.3" cy="192.1" r="3.1" fill="#2563eb" opacity="0.92"/>
<circle cx="767.7" cy="165.7" r="3.1" fill="#2563eb" opacity="0.92"/>
<circle cx="783.9" cy="179.2" r="3.1" fill="#2563eb" opacity="0.92"/>
<circle cx="776.1" cy="220.0" r="3.1" fill="#2563eb" opacity="0.92"/>
<circle cx="753.3" cy="179.0" r="3.1" fill="#2563eb" opacity="0.92"/>
<circle cx="776.7" cy="164.0" r="3.1" fill="#2563eb" opacity="0.92"/>
<circle cx="775.8" cy="162.2" r="3.1" fill="#2563eb" opacity="0.92"/>
<circle cx="778.6" cy="240.2" r="3.1" fill="#2563eb" opacity="0.92"/>
<circle cx="759.0" cy="172.3" r="3.1" fill="#2563eb" opacity="0.92"/>
<circle cx="775.9" cy="232.8" r="3.1" fill="#2563eb" opacity="0.92"/>
<circle cx="783.2" cy="199.8" r="3.1" fill="#2563eb" opacity="0.92"/>
<circle cx="765.3" cy="177.9" r="3.1" fill="#2563eb" opacity="0.92"/>
<circle cx="777.8" cy="230.4" r="3.1" fill="#2563eb" opacity="0.92"/>
<circle cx="887.1" cy="198.0" r="3.1" fill="#e11d48" opacity="0.92"/>
<circle cx="861.8" cy="210.0" r="3.1" fill="#e11d48" opacity="0.92"/>
<circle cx="841.5" cy="222.6" r="3.1" fill="#e11d48" opacity="0.92"/>
<circle cx="875.5" cy="224.6" r="3.1" fill="#e11d48" opacity="0.92"/>
<circle cx="868.1" cy="205.6" r="3.1" fill="#e11d48" opacity="0.92"/>
<circle cx="873.5" cy="166.1" r="3.1" fill="#e11d48" opacity="0.92"/>
<circle cx="872.5" cy="209.4" r="3.1" fill="#e11d48" opacity="0.92"/>
<circle cx="880.6" cy="130.4" r="3.1" fill="#e11d48" opacity="0.92"/>
<circle cx="867.9" cy="183.3" r="3.1" fill="#e11d48" opacity="0.92"/>
<circle cx="850.2" cy="155.1" r="3.1" fill="#e11d48" opacity="0.92"/>
<circle cx="882.3" cy="155.6" r="3.1" fill="#e11d48" opacity="0.92"/>
<circle cx="872.0" cy="235.9" r="3.1" fill="#e11d48" opacity="0.92"/>
<circle cx="885.6" cy="175.2" r="3.1" fill="#e11d48" opacity="0.92"/>
<circle cx="860.4" cy="250.5" r="3.1" fill="#e11d48" opacity="0.92"/>
<circle cx="879.3" cy="206.4" r="3.1" fill="#e11d48" opacity="0.92"/>
<circle cx="909.8" cy="221.4" r="3.1" fill="#e11d48" opacity="0.92"/>
<circle cx="865.3" cy="204.4" r="3.1" fill="#e11d48" opacity="0.92"/>
<circle cx="849.0" cy="230.7" r="3.1" fill="#e11d48" opacity="0.92"/>
<circle cx="896.4" cy="205.1" r="3.1" fill="#e11d48" opacity="0.92"/>
<circle cx="864.1" cy="243.7" r="3.1" fill="#e11d48" opacity="0.92"/>
<circle cx="881.2" cy="178.4" r="3.1" fill="#e11d48" opacity="0.92"/>
<circle cx="876.5" cy="213.8" r="3.1" fill="#e11d48" opacity="0.92"/>
<circle cx="877.2" cy="187.7" r="3.1" fill="#e11d48" opacity="0.92"/>
<circle cx="863.1" cy="179.6" r="3.1" fill="#e11d48" opacity="0.92"/>
<circle cx="842.5" cy="244.3" r="3.1" fill="#e11d48" opacity="0.92"/>
<circle cx="868.5" cy="204.3" r="3.1" fill="#e11d48" opacity="0.92"/>
<circle cx="856.1" cy="189.5" r="3.1" fill="#e11d48" opacity="0.92"/>
<circle cx="888.0" cy="185.4" r="3.1" fill="#e11d48" opacity="0.92"/>
<circle cx="876.1" cy="172.6" r="3.1" fill="#e11d48" opacity="0.92"/>
<circle cx="878.7" cy="239.3" r="3.1" fill="#e11d48" opacity="0.92"/>
<circle cx="869.9" cy="157.0" r="3.1" fill="#e11d48" opacity="0.92"/>
<circle cx="856.5" cy="198.5" r="3.1" fill="#e11d48" opacity="0.92"/>
<circle cx="867.3" cy="231.0" r="3.1" fill="#e11d48" opacity="0.92"/>
<circle cx="858.3" cy="197.2" r="3.1" fill="#e11d48" opacity="0.92"/>
<circle cx="810.1" cy="168.5" r="6.4" fill="none" stroke="#7c3aed" stroke-width="1.6" opacity="0.95"/>
<path d="M 810.1 164.5 A 4.0 4.0 0 0 0 810.1 172.5 Z" fill="#2563eb" opacity="1.0"/><path d="M 810.1 164.5 A 4.0 4.0 0 0 1 810.1 172.5 Z" fill="#e11d48" opacity="1.0"/>
<circle cx="817.5" cy="162.8" r="6.4" fill="none" stroke="#7c3aed" stroke-width="1.6" opacity="0.95"/>
<path d="M 817.5 158.8 A 4.0 4.0 0 0 0 817.5 166.8 Z" fill="#2563eb" opacity="1.0"/><path d="M 817.5 158.8 A 4.0 4.0 0 0 1 817.5 166.8 Z" fill="#e11d48" opacity="1.0"/>
<circle cx="826.5" cy="233.4" r="6.4" fill="none" stroke="#7c3aed" stroke-width="1.6" opacity="0.95"/>
<path d="M 826.5 229.4 A 4.0 4.0 0 0 0 826.5 237.4 Z" fill="#2563eb" opacity="1.0"/><path d="M 826.5 229.4 A 4.0 4.0 0 0 1 826.5 237.4 Z" fill="#e11d48" opacity="1.0"/>
<circle cx="810.1" cy="222.0" r="6.4" fill="none" stroke="#7c3aed" stroke-width="1.6" opacity="0.95"/>
<path d="M 810.1 218.0 A 4.0 4.0 0 0 0 810.1 226.0 Z" fill="#2563eb" opacity="1.0"/><path d="M 810.1 218.0 A 4.0 4.0 0 0 1 810.1 226.0 Z" fill="#e11d48" opacity="1.0"/>
</g>
<text x="715.0" y="317.0" font-size="13" fill="#0f172a" text-anchor="start" font-weight="650" font-family="ui-monospace, SFMono-Regular, Menlo, Consolas, monospace" opacity="1.0">plane + spill</text>
<text x="715.0" y="335.0" font-size="11.5" fill="#64748b" text-anchor="start" font-weight="400" font-family="ui-sans-serif, -apple-system, Segoe UI, Roboto, Helvetica, Arial, sans-serif" opacity="1.0">works on centroid just as well</text>
<line x1="22.0" y1="361.0" x2="44.0" y2="361.0" stroke="#0f172a" stroke-width="1.8" opacity="1.0" stroke-linecap="round"/>
<text x="52.0" y="365.0" font-size="11.5" fill="#64748b" text-anchor="start" font-weight="400" font-family="ui-sans-serif, -apple-system, Segoe UI, Roboto, Helvetica, Arial, sans-serif" opacity="1.0">split plane</text>
<line x1="140.0" y1="361.0" x2="162.0" y2="361.0" stroke="#059669" stroke-width="9" opacity="0.3" stroke-linecap="round"/>
<text x="170.0" y="365.0" font-size="11.5" fill="#64748b" text-anchor="start" font-weight="400" font-family="ui-sans-serif, -apple-system, Segoe UI, Roboto, Helvetica, Arial, sans-serif" opacity="1.0">margin — the empty corridor the shift buys</text>
<line x1="22.0" y1="387.0" x2="44.0" y2="387.0" stroke="#d97706" stroke-width="1.8" stroke-dasharray="3 3" opacity="1.0" stroke-linecap="round"/>
<text x="52.0" y="391.0" font-size="11.5" fill="#64748b" text-anchor="start" font-weight="400" font-family="ui-sans-serif, -apple-system, Segoe UI, Roboto, Helvetica, Arial, sans-serif" opacity="1.0">closer to the other centroid: lost to the descent</text>
<line x1="422.0" y1="387.0" x2="444.0" y2="387.0" stroke="#7c3aed" stroke-width="9" opacity="0.25" stroke-linecap="round"/>
<text x="452.0" y="391.0" font-size="11.5" fill="#64748b" text-anchor="start" font-weight="400" font-family="ui-sans-serif, -apple-system, Segoe UI, Roboto, Helvetica, Arial, sans-serif" opacity="1.0">spill zone — --spill (share) or --eps (measured)</text>
<path d="M 784.0 382.0 A 5.0 5.0 0 0 0 784.0 392.0 Z" fill="#2563eb" opacity="1.0"/><path d="M 784.0 382.0 A 5.0 5.0 0 0 1 784.0 392.0 Z" fill="#e11d48" opacity="1.0"/>
<circle cx="784" cy="387" r="7.4" fill="none" stroke="#7c3aed" stroke-width="1.5"/>
<text x="800.0" y="391.0" font-size="11.5" fill="#64748b" text-anchor="start" font-weight="400" font-family="ui-sans-serif, -apple-system, Segoe UI, Roboto, Helvetica, Arial, sans-serif" opacity="1.0">in BOTH children</text>
</svg>